<svg width="173" height="71" viewBox="0 0 173 71" fill="none" xmlns="http://www.w3.org/2000/svg">
<path d="M71 35.5C71 55.1061 55.1061 71 35.5 71C15.8939 71 0 55.1061 0 35.5C0 15.8939 15.8939 0 35.5 0C55.1061 0 71 15.8939 71 35.5Z" fill="#2DE160"/>
<path d="M40.5809 45.6783L38.7378 40.4352H31.8106L29.9994 45.6783H24.7881L32.4779 23.6892H38.0705L46.2053 45.6783H40.5809ZM35.2742 30.4257L33.3359 35.9866H37.2126L35.2742 30.4257Z" fill="#0A431A"/>
<path d="M122 35.5C122 55.1061 106.106 71 86.5 71C66.8939 71 51 55.1061 51 35.5C51 15.8939 66.8939 0 86.5 0C106.106 0 122 15.8939 122 35.5Z" fill="#FFCA0F"/>
<path d="M94.198 39.1324C94.198 43.1998 91.5606 45.6783 87.525 45.6783H79.4856V23.6892H87.0166C91.5288 23.6892 93.7531 26.0088 93.7531 29.7266C93.7531 31.6014 92.8634 33.3491 91.5288 34.08C93.34 35.0333 94.198 36.5585 94.198 39.1324ZM86.6988 36.7174H84.7287V41.0708H86.6988C87.9381 41.0708 88.7325 40.181 88.7325 38.8782C88.7325 37.5118 87.9381 36.7174 86.6988 36.7174ZM86.5081 28.2332H84.7287V32.237H86.5081C87.6203 32.237 88.3512 31.5379 88.3512 30.2351C88.3512 28.9322 87.6521 28.2332 86.5081 28.2332Z" fill="#413300"/>
<path d="M173 35.5C173 55.1061 157.106 71 137.5 71C117.894 71 102 55.1061 102 35.5C102 15.8939 117.894 0 137.5 0C157.106 0 173 15.8939 173 35.5Z" fill="#2DD6E1"/>
<path d="M144 39.482L147.114 43.2316C145.24 45.011 142.888 46.0914 139.806 46.0914C132.497 46.0914 128.112 41.1343 128.112 34.7155C128.112 28.3603 132.688 23.2761 139.711 23.2761C143.047 23.2761 145.399 24.3565 147.146 25.8817L144 29.8855C143.206 29.1547 141.744 28.2332 139.774 28.2332C135.866 28.2332 133.673 31.093 133.673 34.6838C133.673 38.3062 136.12 41.1343 139.806 41.1343C141.649 41.1343 143.047 40.3082 144 39.482Z" fill="#0A3A3E"/>
</svg>
