<svg width="173" height="81" viewBox="0 0 173 81" fill="none" xmlns="http://www.w3.org/2000/svg">
<path d="M71.875 20.5C71.875 26.0228 76.352 30.5 81.875 30.5C87.398 30.5 91.875 26.0228 91.875 20.5C91.875 14.9772 87.398 10.5 81.875 10.5C76.352 10.5 71.875 14.9772 71.875 20.5Z" fill="white"/>
<path d="M50.2083 60.5C50.2083 66.023 54.6854 70.5 60.2083 70.5C65.7311 70.5 70.2083 66.023 70.2083 60.5C70.2083 54.977 65.7311 50.5 60.2083 50.5C54.6854 50.5 50.2083 54.977 50.2083 60.5Z" fill="white"/>
<path d="M103.542 70.5C98.0187 70.5 93.5417 66.023 93.5417 60.5C93.5417 54.977 98.0187 50.5 103.542 50.5C109.065 50.5 113.542 54.977 113.542 60.5C113.542 66.023 109.065 70.5 103.542 70.5Z" fill="white"/>
<path d="M65.8905 25.7077C66.9257 24.794 67.0242 23.2142 66.1106 22.179C65.1969 21.1438 63.6171 21.0453 62.5819 21.959C56.5308 27.2997 52.7083 35.1217 52.7083 43.8333C52.7083 45.214 53.8276 46.3333 55.2083 46.3333C56.589 46.3333 57.7083 45.214 57.7083 43.8333C57.7083 36.6157 60.8692 30.1396 65.8905 25.7077Z" fill="white"/>
<path d="M101.168 21.959C100.133 21.0453 98.553 21.1438 97.6393 22.179C96.7256 23.2142 96.8243 24.794 97.8593 25.7077C102.881 30.1396 106.042 36.6157 106.042 43.8333C106.042 45.214 107.161 46.3333 108.542 46.3333C109.922 46.3333 111.042 45.214 111.042 43.8333C111.042 35.1217 107.219 27.2997 101.168 21.959Z" fill="white"/>
<path d="M75.8314 67.239C74.4944 66.8947 73.1314 67.6997 72.7873 69.0367C72.4431 70.374 73.2481 71.737 74.5852 72.081C76.918 72.6813 79.361 73 81.875 73C84.389 73 86.832 72.6813 89.1647 72.081C90.502 71.737 91.307 70.374 90.9627 69.0367C90.6187 67.6997 89.2557 66.8947 87.9187 67.239C85.9897 67.7353 83.965 68 81.875 68C79.785 68 77.7604 67.7353 75.8314 67.239Z" fill="white"/>
<circle cx="113.125" cy="42.5" r="18" fill="#FF570F"/>
<path d="M109.211 51.1856C108.573 52.2351 109.039 53.6041 110.252 54.2433C111.466 54.8825 112.966 54.5497 113.603 53.5C114.715 51.6687 114.989 50.141 115.563 48C116.137 45.859 116.181 43.0147 116.133 40.8728C116.106 39.6449 114.973 38.6065 113.603 38.5536C112.233 38.5006 111.145 39.453 111.172 40.6807C111.211 42.4519 111.58 44.4769 111.103 46.2568C110.626 48.0366 110.13 49.6713 109.211 51.1856Z" fill="#4D1700"/>
<circle cx="113.625" cy="34" r="3" fill="#4D1700"/>
</svg>
