<svg width="90" height="80" viewBox="0 0 90 80" fill="none" xmlns="http://www.w3.org/2000/svg">
<path d="M30 20C30 25.5228 34.477 30 40 30C45.523 30 50 25.5228 50 20C50 14.4772 45.523 10 40 10C34.477 10 30 14.4772 30 20Z" fill="white"/>
<path d="M8.33331 60C8.33331 65.523 12.8105 70 18.3333 70C23.8561 70 28.3333 65.523 28.3333 60C28.3333 54.477 23.8561 50 18.3333 50C12.8105 50 8.33331 54.477 8.33331 60Z" fill="white"/>
<path d="M61.6667 70C56.1437 70 51.6667 65.523 51.6667 60C51.6667 54.477 56.1437 50 61.6667 50C67.1897 50 71.6667 54.477 71.6667 60C71.6667 65.523 67.1897 70 61.6667 70Z" fill="white"/>
<path d="M24.0156 25.2077C25.0507 24.294 25.1492 22.7142 24.2356 21.679C23.3219 20.6438 21.7421 20.5453 20.7069 21.459C14.6558 26.7997 10.8333 34.6217 10.8333 43.3333C10.8333 44.714 11.9526 45.8333 13.3333 45.8333C14.714 45.8333 15.8333 44.714 15.8333 43.3333C15.8333 36.1157 18.9942 29.6396 24.0156 25.2077Z" fill="white"/>
<path d="M59.293 21.459C58.258 20.5453 56.678 20.6438 55.7643 21.679C54.8506 22.7142 54.9493 24.294 55.9843 25.2077C61.0056 29.6396 64.1666 36.1157 64.1666 43.3333C64.1666 44.714 65.286 45.8333 66.6666 45.8333C68.0473 45.8333 69.1666 44.714 69.1666 43.3333C69.1666 34.6217 65.344 26.7997 59.293 21.459Z" fill="white"/>
<path d="M33.9563 66.739C32.6193 66.3947 31.2564 67.1997 30.9122 68.5367C30.5681 69.874 31.373 71.237 32.7102 71.581C35.043 72.1813 37.486 72.5 40 72.5C42.514 72.5 44.957 72.1813 47.2896 71.581C48.627 71.237 49.432 69.874 49.0876 68.5367C48.7436 67.1997 47.3806 66.3947 46.0436 66.739C44.1146 67.2353 42.09 67.5 40 67.5C37.91 67.5 35.8853 67.2353 33.9563 66.739Z" fill="white"/>
<circle cx="71.25" cy="42" r="18" fill="#FF570F"/>
<path d="M67.3355 50.6856C66.6978 51.7351 67.1644 53.1041 68.3773 53.7433C69.5905 54.3825 71.0907 54.0497 71.7281 53C72.8403 51.1687 73.114 49.641 73.6877 47.5C74.2614 45.359 74.3059 42.5147 74.2583 40.3728C74.2312 39.1449 73.0984 38.1065 71.728 38.0536C70.3581 38.0006 69.2695 38.953 69.297 40.1807C69.3362 41.9519 69.7051 43.9769 69.2281 45.7568C68.7512 47.5366 68.2551 49.1713 67.3355 50.6856Z" fill="#4D1700"/>
<circle cx="71.7499" cy="33.5" r="3" fill="#4D1700"/>
</svg>
