<svg width="77" height="76" viewBox="0 0 77 76" fill="none" xmlns="http://www.w3.org/2000/svg">
<path d="M49.8557 22.4517L32.439 30.3683C31.7345 30.6835 31.1708 31.2471 30.8557 31.9517L22.939 49.3683C22.6743 49.9559 22.5952 50.6102 22.7122 51.244C22.8292 51.8777 23.1367 52.4607 23.5938 52.915C24.0509 53.3693 24.6357 53.6733 25.2701 53.7865C25.9045 53.8997 26.5584 53.8166 27.1443 53.5483L44.561 45.6317C45.2655 45.3165 45.8292 44.7529 46.1443 44.0483L54.061 26.6317C54.3257 26.0441 54.4048 25.3898 54.2878 24.756C54.1708 24.1223 53.8633 23.5393 53.4062 23.085C52.9491 22.6307 52.3643 22.3267 51.7299 22.2135C51.0955 22.1003 50.4416 22.1834 49.8557 22.4517ZM40.8592 40.3592L32.211 44.289L36.1408 35.6408L44.789 31.711L40.8592 40.3592ZM38.5 3.16667C31.6106 3.16667 24.876 5.20961 19.1476 9.03715C13.4193 12.8647 8.95465 18.3049 6.3182 24.6699C3.68175 31.0348 2.99193 38.0386 4.33598 44.7956C5.68004 51.5526 8.99759 57.7594 13.8691 62.6309C18.7406 67.5024 24.9474 70.82 31.7044 72.164C38.4614 73.5081 45.4652 72.8182 51.8301 70.1818C58.1951 67.5453 63.6353 63.0807 67.4629 57.3524C71.2904 51.6241 73.3333 44.8894 73.3333 38C73.3224 28.765 69.649 19.9113 63.1189 13.3812C56.5887 6.851 47.735 3.17757 38.5 3.16667ZM38.5 66.5C32.8632 66.5 27.3531 64.8285 22.6663 61.6969C17.9795 58.5653 14.3265 54.1142 12.1694 48.9065C10.0123 43.6988 9.44795 37.9684 10.5476 32.4399C11.6473 26.9115 14.3617 21.8333 18.3475 17.8475C22.3333 13.8617 27.4115 11.1473 32.9399 10.0476C38.4684 8.94794 44.1988 9.51234 49.4065 11.6694C54.6142 13.8265 59.0653 17.4795 62.1969 22.1663C65.3285 26.8531 67 32.3632 67 38C66.9916 45.5561 63.9863 52.8003 58.6433 58.1433C53.3003 63.4863 46.0561 66.4916 38.5 66.5Z" fill="#F9423A"/>
</svg>
