<svg width="207" height="207" viewBox="0 0 207 207" fill="none" xmlns="http://www.w3.org/2000/svg">
<path d="M207 103.5C207 160.661 160.661 207 103.5 207C46.3385 207 0 160.661 0 103.5C0 46.3385 46.3385 0 103.5 0C160.661 0 207 46.3385 207 103.5Z" fill="#FFCA0F"/>
<path d="M159.632 81.7881C161.564 79.8819 161.564 76.7906 159.633 74.8836L156.136 71.4307C154.205 69.5237 151.073 69.523 149.141 71.4292L94.6252 125.212C92.6932 127.118 92.6926 130.21 94.6237 132.117L98.1209 135.569C100.052 137.476 103.184 137.477 105.116 135.571L159.632 81.7881Z" fill="#413300"/>
<path d="M129.766 81.8213C131.682 79.9091 131.682 76.8088 129.766 74.8966L126.298 71.4342C124.383 69.5219 121.277 69.5219 119.362 71.4342L72.4646 118.254L58.8409 104.653C56.9256 102.74 53.8201 102.74 51.9047 104.653L48.4365 108.115C46.5211 110.028 46.5212 113.128 48.4365 115.04L68.9964 135.566C70.9118 137.478 74.0173 137.478 75.9327 135.566L129.766 81.8213Z" fill="#413300"/>
</svg>
