<svg width="90" height="80" viewBox="0 0 90 80" fill="none" xmlns="http://www.w3.org/2000/svg">
<path d="M6.24248 60.0689C4.46218 60.4482 3.27906 62.2281 3.65461 64.0179C4.03268 65.8196 5.79974 66.9737 7.60144 66.5957C9.36064 66.2244 11.1004 65.7424 12.8236 65.2334C15.9101 64.3218 20.0716 62.9189 24.3095 60.9593C28.523 59.0109 32.9654 56.4428 36.5007 53.1423C40.0447 49.8333 42.883 45.586 43.3603 40.336C43.64 37.259 45.3347 34.4323 48.1833 31.7997C48.8273 31.2043 49.5193 30.63 50.25 30.077V36.6667C50.25 38.5077 51.7423 40 53.5833 40C55.4243 40 56.9167 38.5077 56.9167 36.6667V26.018C57.5287 25.7113 58.1477 25.4157 58.7697 25.1303C60.3433 24.4087 61.951 23.7327 63.5833 23.11V40C63.5833 41.841 65.0757 43.3333 66.9167 43.3333C68.7577 43.3333 70.25 41.841 70.25 40V20.9143C71.5823 20.545 72.9227 20.2153 74.266 19.9293C76.0673 19.552 77.223 17.7857 76.8463 15.984C76.4693 14.1823 74.703 13.027 72.901 13.404C67.103 14.6307 61.3673 16.605 55.9907 19.0703C51.727 21.0257 47.2333 23.6 43.6583 26.9037C42.4137 28.054 41.254 29.3187 40.2503 30.7C39.247 29.3187 38.087 28.054 36.8423 26.9037C33.2676 23.6 28.7737 21.0257 24.5099 19.0703C19.137 16.6067 13.3973 14.6207 7.59981 13.404C5.79788 13.027 4.03151 14.1823 3.65451 15.984C3.27997 17.7743 4.46418 19.554 6.24518 19.9317C11.5536 21.0763 16.8028 22.8703 21.7311 25.1303C25.6637 26.9337 29.4609 29.1597 32.3175 31.7997C34.4677 33.787 37.0023 36.6367 36.721 39.7323C36.4407 42.8153 34.7597 45.6473 31.951 48.2693C31.4156 48.7692 30.8468 49.254 30.25 49.7238V43.3333C30.25 41.4923 28.7576 40 26.9167 40C25.0757 40 23.5833 41.4923 23.5833 43.3333V53.9013C22.9001 54.2505 22.208 54.5861 21.5115 54.9082C19.9566 55.6272 18.4046 56.2672 16.9167 56.831V40C16.9167 38.159 15.4243 36.6667 13.5833 36.6667C11.7424 36.6667 10.25 38.159 10.25 40L10.25 59.0399C8.92504 59.4221 7.58991 59.7774 6.24248 60.0689Z" fill="white"/>
<path d="M72.899 66.5956C74.7007 66.9737 76.4677 65.8196 76.846 64.0179C77.224 62.2161 76.029 60.4479 74.244 60.0659C71.5493 59.4768 68.8917 58.684 66.2813 57.7985C61.6113 56.2142 55.9357 53.8324 51.4097 50.593C49.9127 49.5216 47.8303 49.8666 46.759 51.3636C45.6877 52.8607 46.0327 54.9428 47.5297 56.0143C52.8273 59.806 59.209 62.4391 64.1397 64.1118C67.0073 65.0846 69.933 65.9685 72.899 66.5956Z" fill="white"/>
<circle cx="71.5" cy="56.5" r="18" fill="#2DE160"/>
<path d="M67.5855 65.1856C66.9478 66.2351 67.4144 67.6041 68.6273 68.2433C69.8405 68.8825 71.3407 68.5497 71.9781 67.5C73.0903 65.6687 73.364 64.141 73.9377 62C74.5114 59.859 74.5559 57.0147 74.5083 54.8728C74.4812 53.6449 73.3484 52.6065 71.978 52.5536C70.6081 52.5006 69.5195 53.453 69.547 54.6807C69.5862 56.4519 69.9551 58.4769 69.4781 60.2568C69.0012 62.0366 68.5051 63.6713 67.5855 65.1856Z" fill="#0A431A"/>
<circle cx="71.9999" cy="48" r="3" fill="#0A431A"/>
</svg>
