<svg width="173" height="81" viewBox="0 0 173 81" fill="none" xmlns="http://www.w3.org/2000/svg">
<path d="M47.8675 60.5689C46.0872 60.9482 44.9041 62.7281 45.2796 64.5179C45.6577 66.3196 47.4247 67.4737 49.2264 67.0957C50.9856 66.7244 52.7254 66.2424 54.4486 65.7334C57.5351 64.8218 61.6966 63.4189 65.9345 61.4593C70.148 59.5109 74.5904 56.9428 78.1257 53.6423C81.6697 50.3333 84.508 46.086 84.9853 40.836C85.265 37.759 86.9597 34.9323 89.8083 32.2997C90.4523 31.7043 91.1443 31.13 91.875 30.577V37.1667C91.875 39.0077 93.3673 40.5 95.2083 40.5C97.0493 40.5 98.5417 39.0077 98.5417 37.1667V26.518C99.1537 26.2113 99.7727 25.9157 100.395 25.6303C101.968 24.9087 103.576 24.2327 105.208 23.61V40.5C105.208 42.341 106.701 43.8333 108.542 43.8333C110.383 43.8333 111.875 42.341 111.875 40.5V21.4143C113.207 21.045 114.548 20.7153 115.891 20.4293C117.692 20.052 118.848 18.2857 118.471 16.484C118.094 14.6823 116.328 13.527 114.526 13.904C108.728 15.1307 102.992 17.105 97.6157 19.5703C93.352 21.5257 88.8583 24.1 85.2833 27.4037C84.0387 28.554 82.879 29.8187 81.8753 31.2C80.872 29.8187 79.712 28.554 78.4673 27.4037C74.8926 24.1 70.3987 21.5257 66.1349 19.5703C60.762 17.1067 55.0223 15.1207 49.2248 13.904C47.4229 13.527 45.6565 14.6823 45.2795 16.484C44.905 18.2743 46.0892 20.054 47.8702 20.4317C53.1786 21.5763 58.4278 23.3703 63.3561 25.6303C67.2887 27.4337 71.0859 29.6597 73.9425 32.2997C76.0927 34.287 78.6273 37.1367 78.346 40.2323C78.0657 43.3153 76.3847 46.1473 73.576 48.7693C73.0406 49.2692 72.4718 49.754 71.875 50.2238V43.8333C71.875 41.9923 70.3826 40.5 68.5417 40.5C66.7007 40.5 65.2083 41.9923 65.2083 43.8333V54.4013C64.5251 54.7505 63.833 55.0861 63.1365 55.4082C61.5816 56.1272 60.0296 56.7672 58.5417 57.331V40.5C58.5417 38.659 57.0493 37.1667 55.2083 37.1667C53.3674 37.1667 51.875 38.659 51.875 40.5V59.5399C50.55 59.9221 49.2149 60.2774 47.8675 60.5689Z" fill="white"/>
<path d="M114.524 67.0956C116.326 67.4737 118.093 66.3196 118.471 64.5179C118.849 62.7161 117.654 60.9479 115.869 60.5659C113.174 59.9768 110.517 59.184 107.906 58.2985C103.236 56.7142 97.5605 54.3324 93.0345 51.093C91.5375 50.0216 89.4552 50.3666 88.3839 51.8636C87.3125 53.3607 87.6575 55.4428 89.1545 56.5143C94.4522 60.306 100.834 62.9391 105.765 64.6118C108.632 65.5846 111.558 66.4685 114.524 67.0956Z" fill="white"/>
<circle cx="113.125" cy="57" r="18" fill="#2DE160"/>
<path d="M109.211 65.6856C108.573 66.7351 109.039 68.1041 110.252 68.7433C111.466 69.3825 112.966 69.0497 113.603 68C114.715 66.1687 114.989 64.641 115.563 62.5C116.137 60.359 116.181 57.5147 116.133 55.3728C116.106 54.1449 114.973 53.1065 113.603 53.0536C112.233 53.0006 111.145 53.953 111.172 55.1807C111.211 56.9519 111.58 58.9769 111.103 60.7568C110.626 62.5366 110.13 64.1713 109.211 65.6856Z" fill="#0A431A"/>
<circle cx="113.625" cy="48.5" r="3" fill="#0A431A"/>
</svg>
