<svg width="277" height="66" viewBox="0 0 277 66" fill="none" xmlns="http://www.w3.org/2000/svg">
<path d="M13.7503 18.2935L12.3409 14.157H7.04332L5.65818 18.2935H1.67285L7.55364 0.945293H11.8306L18.0516 18.2935H13.7503ZM9.69211 6.26006L8.20976 10.6472H11.1745L9.69211 6.26006Z" fill="#404040"/>
<path d="M29.2349 18.2935L22.7466 8.04V18.2935H18.8341V0.945293H23.0139L29.3321 11.4244V0.945293H33.2445V18.2935H29.2349Z" fill="#404040"/>
<path d="M42.8978 0.945293V18.2935H38.8396V0.945293H42.8978Z" fill="#404040"/>
<path d="M55.363 18.2935L48.8746 8.04V18.2935H44.9622V0.945293H49.142L55.4602 11.4244V0.945293H59.3726V18.2935H55.363Z" fill="#404040"/>
<path d="M70.4015 4.85615H67.6069V18.2935H63.5487V4.85615H60.7298V0.945293H70.4015V4.85615Z" fill="#404040"/>
<path d="M79.7983 18.2935H71.7548V0.945293H79.7254V4.85615H75.813V7.53861H79.6039V11.3993H75.813V14.3826H79.7983V18.2935Z" fill="#404040"/>
<path d="M92.5895 6.10964C92.5895 8.04 91.8118 9.51911 90.451 10.3715L94.2905 18.2935H89.9407L86.6358 11.1737H85.5422V18.2935H81.5083V0.945293H87.2919C90.8155 0.945293 92.5895 2.82551 92.5895 6.10964ZM86.9517 4.55532H85.5422V7.76423H86.9517C87.8751 7.76423 88.4097 7.11242 88.4097 6.13471C88.4097 5.18206 87.8508 4.55532 86.9517 4.55532Z" fill="#404040"/>
<path d="M106.634 18.2935L105.225 14.157H99.9273L98.5422 18.2935H94.5569L100.438 0.945293H104.715L110.936 18.2935H106.634ZM102.576 6.26006L101.094 10.6472H104.058L102.576 6.26006Z" fill="#404040"/>
<path d="M122.41 13.4049L124.791 16.3631C123.357 17.767 121.559 18.6194 119.202 18.6194C113.613 18.6194 110.259 14.7085 110.259 9.64446C110.259 4.63053 113.758 0.619385 119.129 0.619385C121.681 0.619385 123.479 1.47176 124.815 2.6751L122.41 5.83387C121.802 5.25727 120.684 4.53025 119.178 4.53025C116.189 4.53025 114.512 6.78652 114.512 9.61938C114.512 12.4773 116.383 14.7085 119.202 14.7085C120.611 14.7085 121.681 14.0567 122.41 13.4049Z" fill="#404040"/>
<path d="M135.164 4.85615H132.369V18.2935H128.311V4.85615H125.492V0.945293H135.164V4.85615Z" fill="#404040"/>
<path d="M140.576 0.945293V18.2935H136.517V0.945293H140.576Z" fill="#404040"/>
<path d="M147.503 18.2935L141.355 0.945293H145.899L149.836 13.0038L153.773 0.945293H158.098L151.901 18.2935H147.503Z" fill="#404040"/>
<path d="M166.916 18.2935H158.872V0.945293H166.843V4.85615H162.93V7.53861H166.721V11.3993H162.93V14.3826H166.916V18.2935Z" fill="#404040"/>
<path d="M180.178 18.2935H172.28V0.945293H176.338V14.3826H180.178V18.2935Z" fill="#404040"/>
<path d="M189.65 18.2935H181.607V0.945293H189.577V4.85615H185.665V7.53861H189.456V11.3993H185.665V14.3826H189.65V18.2935Z" fill="#404040"/>
<path d="M202.271 18.2935L200.862 14.157H195.564L194.179 18.2935H190.194L196.075 0.945293H200.351L206.572 18.2935H202.271ZM198.213 6.26006L196.731 10.6472H199.695L198.213 6.26006Z" fill="#404040"/>
<path d="M218.436 6.10964C218.436 8.04 217.659 9.51911 216.298 10.3715L220.137 18.2935H215.787L212.482 11.1737H211.389V18.2935H207.355V0.945293H213.139C216.662 0.945293 218.436 2.82551 218.436 6.10964ZM212.798 4.55532H211.389V7.76423H212.798C213.722 7.76423 214.256 7.11242 214.256 6.13471C214.256 5.18206 213.698 4.55532 212.798 4.55532Z" fill="#404040"/>
<path d="M231.116 18.2935L224.628 8.04V18.2935H220.716V0.945293H224.895L231.214 11.4244V0.945293H235.126V18.2935H231.116Z" fill="#404040"/>
<path d="M241.243 0.945293V18.2935H237.185V0.945293H241.243Z" fill="#404040"/>
<path d="M253.709 18.2935L247.22 8.04V18.2935H243.308V0.945293H247.488L253.806 11.4244V0.945293H257.718V18.2935H253.709Z" fill="#404040"/>
<path d="M275.673 8.71688V18.2935H271.76V17.4411C270.959 18.0929 269.695 18.5943 267.897 18.5943C262.696 18.5943 259.173 15.0094 259.173 9.59432C259.173 4.78095 262.575 0.619385 267.897 0.619385C271.566 0.619385 273.802 2.22384 275.041 4.27955L271.833 6.66117C271.129 5.63332 269.986 4.53025 267.872 4.53025C265.224 4.53025 263.401 6.61103 263.401 9.59432C263.401 12.728 265.418 14.7336 268.091 14.7336C269.962 14.7336 271.177 13.9564 271.688 13.4049V12.1514H269.185V8.71688H275.673Z" fill="#404040"/>
<path d="M19.8036 64.8589H0.672852V24.3798H19.6303V33.5052H10.3249V39.7642H19.3413V48.7726H10.3249V55.7336H19.8036V64.8589Z" fill="#404040"/>
<path d="M21.0964 64.8589L34.2163 43.9759L21.5588 24.3798H33.2916L40.285 35.494L47.0472 24.3798H58.3754L45.8335 44.2684L58.8378 64.8589H47.683L39.7648 52.5163C35.6612 58.7169 33.0604 63.0456 31.9044 64.8589H21.0964Z" fill="#404040"/>
<path d="M87.0265 36.43C87.0265 43.9174 82.1716 48.7141 74.4846 48.7141H70.2654V64.8589H60.6711V24.3798H74.4268C82.8073 24.3798 87.0265 28.767 87.0265 36.43ZM73.6176 32.8032H70.2654V40.2907H73.6176C75.8139 40.2907 77.0854 38.7698 77.0854 36.4885C77.0854 34.2656 75.7561 32.8032 73.6176 32.8032Z" fill="#404040"/>
<path d="M108.87 64.8589H89.7389V24.3798H108.696V33.5052H99.391V39.7642H108.407V48.7726H99.391V55.7336H108.87V64.8589Z" fill="#404040"/>
<path d="M139.292 36.43C139.292 40.9342 137.443 44.3854 134.206 46.3743L143.338 64.8589H132.992L125.132 48.2461H122.531V64.8589H112.937V24.3798H126.692C135.073 24.3798 139.292 28.767 139.292 36.43ZM125.883 32.8032H122.531V40.2907H125.883C128.08 40.2907 129.351 38.7698 129.351 36.4885C129.351 34.2656 128.022 32.8032 125.883 32.8032Z" fill="#404040"/>
<path d="M154.366 24.3798V64.8589H144.714V24.3798H154.366Z" fill="#404040"/>
<path d="M178.407 64.8589H159.276V24.3798H178.233V33.5052H168.928V39.7642H177.944V48.7726H168.928V55.7336H178.407V64.8589Z" fill="#404040"/>
<path d="M207.211 64.8589L191.779 40.9342V64.8589H182.474V24.3798H192.415L207.442 48.8311V24.3798H216.747V64.8589H207.211Z" fill="#404040"/>
<path d="M249.105 53.4523L254.769 60.3548C251.359 63.6305 247.082 65.6194 241.476 65.6194C228.183 65.6194 220.207 56.494 220.207 44.6779C220.207 32.9787 228.529 23.6194 241.302 23.6194C247.371 23.6194 251.648 25.6083 254.827 28.4161L249.105 35.7865C247.66 34.4411 245.001 32.7447 241.418 32.7447C234.309 32.7447 230.321 38.0094 230.321 44.6194C230.321 51.2879 234.771 56.494 241.476 56.494C244.828 56.494 247.371 54.9731 249.105 53.4523Z" fill="#404040"/>
<path d="M276.673 64.8589H257.542V24.3798H276.499V33.5052H267.194V39.7642H276.21V48.7726H267.194V55.7336H276.673V64.8589Z" fill="#404040"/>
</svg>
