<svg width="1920" height="1080" viewBox="0 0 1920 1080" fill="none" xmlns="http://www.w3.org/2000/svg">
<g clip-path="url(#clip0_1_2)">
<rect width="1920" height="1080" fill="#82A779"/>
<path d="M137 267.5L-7 295.5L-12 -5.5H402.5L379 54.5L328.5 137L253 209.5L137 267.5Z" fill="#40BAFF"/>
<path d="M1571.5 968.5C1544 992 1519.17 1054.83 1518.5 1088.5L1535 1093H1935L1944 874C1904.5 878.833 1814.13 893 1760 893C1664.5 893 1607.05 938.117 1571.5 968.5Z" fill="#40BAFF" fill-opacity="0.9"/>
<path d="M1517.5 1106.5C1514.33 1058.17 1540.4 951.1 1670 909.5C1832 857.5 1933.5 918.5 2107 803.5" stroke="black" stroke-opacity="0.2" stroke-width="33"/>
<path d="M1504.5 1094.5C1501.33 1046.17 1527.4 939.1 1657 897.5C1819 845.5 1920.5 906.5 2094 791.5" stroke="#354830" stroke-width="13"/>
<path d="M-97.5 300C-28.5 305.5 141.3 292.2 268.5 195C427.5 73.5 349 -29 505.5 -88C630.7 -135.2 834.333 -136.333 920.5 -131" stroke="#354830" stroke-width="13"/>
<path d="M1679.72 107.332C1850.4 56.3058 1959.32 181.692 1992.45 250.763C2027.33 520.802 2113.73 629.622 2152.58 650.277C2062.72 758.778 1818.05 893.786 1558.25 565.808C1233.5 155.836 1316.78 -20.3245 1422.95 -45.434C1529.12 -70.5435 1466.36 171.114 1679.72 107.332Z" fill="#8AB381"/>
<path d="M261.5 756C164.3 682 -16 758.5 -94 806C-121.333 869.667 -176.5 1020.9 -178.5 1116.5C-181 1236 622 1296.5 611 1193C600 1089.5 582 1066 409.5 1013C237 960 383 848.5 261.5 756Z" fill="#8AB281"/>
<ellipse cx="1146.5" cy="677.5" rx="26.5" ry="22.5" fill="#799B70"/>
<ellipse cx="1098.5" cy="643.5" rx="13.5" ry="11.5" fill="#799B70"/>
<path d="M1044 701C1043.2 676.2 1059.5 644 1094 673.5C1101 681.5 1102.5 684 1104 695C1105.99 709.571 1094 727 1081.5 730C1069 733 1045 732 1044 701Z" fill="#799B70"/>
</g>
<defs>
<clipPath id="clip0_1_2">
<rect width="1920" height="1080" fill="white"/>
</clipPath>
</defs>
</svg>
