<svg width="480" height="162" viewBox="0 0 480 162" fill="none" xmlns="http://www.w3.org/2000/svg">
<path d="M52.7698 102.744C48.0814 105.736 41.8967 104.34 38.904 99.7012L1.64594 41.4449C-1.34668 36.7565 0.0498767 30.5717 4.68843 27.5791C9.37687 24.5865 15.5616 25.983 18.5542 30.6216L55.7625 88.8779C58.8049 93.5663 57.4583 99.7511 52.7698 102.744ZM57.5081 122.894C57.5081 128.43 53.0192 132.919 47.4829 132.919H10.0751C4.48893 132.969 0 128.48 0 122.894C0 117.358 4.48893 112.869 10.0253 112.869H47.433C53.0192 112.869 57.5081 117.358 57.5081 122.894ZM57.5081 150.975C57.5081 156.511 53.0192 161 47.4829 161H10.0751C4.48893 161 0 156.511 0 150.975C0 145.438 4.48893 140.949 10.0253 140.949H47.433C53.0192 140.9 57.5081 145.389 57.5081 150.975Z" fill="#F9423A"/>
<path d="M37.1086 36.158V94.3145H57.3586L57.1591 36.158C57.1591 30.6216 52.6702 26.1327 47.1338 26.1327C41.5975 26.1327 37.1086 30.6216 37.1086 36.158Z" fill="#F9423A"/>
<path d="M0.0998535 94.2647C0.0998535 99.801 4.58878 104.29 10.1251 104.29C15.6615 104.29 20.2003 99.801 20.2003 94.2647V36.0084H0.0998535V94.2647Z" fill="#F9423A"/>
<path d="M84.6912 71.7603C80.5952 71.8243 79.1232 70.1603 79.0592 65.8083C79.1232 61.5843 79.1872 57.1042 79.3792 52.6882C79.5072 48.5282 79.5072 42.7683 79.5712 38.6723C76.0512 38.6723 72.9792 38.2243 71.5072 37.0082C69.7152 35.2803 69.7792 32.3363 71.0592 29.4563C72.4032 26.3843 74.7072 26.8323 79.2512 27.0883C81.1072 27.2803 90.1312 27.5362 91.1552 27.4722C94.7392 27.4083 96.3392 27.0243 98.2592 28.3682C99.6672 29.3282 100.179 30.8643 100.179 32.4643C100.179 34.7683 100.051 36.6882 98.9632 37.3283C96.9152 38.8003 94.4832 38.7362 90.8352 38.7362C91.2192 63.0563 91.3472 66.3843 91.0272 68.3683C90.5792 71.1842 88.4672 71.7603 84.6912 71.7603Z" fill="#0A431A"/>
<path d="M109.425 71.6963C105.521 71.3763 104.561 69.4563 104.497 64.7843C104.433 62.8003 104.497 60.8802 104.497 59.0243C104.561 56.9762 104.497 54.9923 104.433 52.8803C104.369 50.3843 104.689 42.5763 104.177 32.9763C104.113 30.4802 104.497 28.6243 105.649 27.6003C107.505 25.8723 112.433 26.1923 114.225 27.5362C115.441 28.6243 116.017 29.5203 115.953 31.8243C115.633 44.5603 115.889 51.2163 116.017 57.6803C116.145 60.3043 116.209 62.9282 116.273 65.9362C116.273 67.7922 115.889 68.8803 115.185 69.7763C114.097 71.5683 111.985 71.6323 109.425 71.6963Z" fill="#0A431A"/>
<path d="M128.053 71.6963H127.989C124.213 71.6963 123.253 68.9443 123.189 64.8483C122.741 51.7283 122.549 34.6402 122.933 30.4802C123.061 26.7683 128.501 26.1923 131.509 27.3443C133.237 27.7922 133.877 29.0723 134.773 30.2883C135.349 31.1843 140.149 38.8003 142.709 42.5763C143.413 41.3602 145.077 38.3523 145.717 37.2642C149.045 30.8643 150.773 26.7683 155.509 26.7683C157.877 26.7683 159.349 26.9602 160.181 28.3043C161.397 29.9683 161.717 32.5923 161.909 34.0643C161.909 31.4403 162.357 43.0243 162.485 47.5683C162.613 49.5523 162.613 54.8643 162.677 56.3363C162.869 59.8563 162.869 62.8643 162.741 66.5123C162.741 69.2003 162.101 70.4803 160.501 71.0563C158.261 72.0163 154.165 71.8882 152.757 69.4562C150.965 67.2162 151.477 63.5042 151.477 59.6642C151.605 56.9762 151.541 52.5603 151.541 49.8083C147.637 56.2083 146.293 58.2563 143.541 59.2163C142.261 59.4083 140.917 59.0243 139.317 57.4243C138.741 56.9763 138.037 56.0803 137.397 55.1203C136.181 53.3283 135.541 52.1763 134.197 49.8723C134.197 52.1763 134.453 63.2483 134.517 66.5763C134.709 71.0563 131.637 71.6963 128.053 71.6963Z" fill="#0A431A"/>
<path d="M186.393 71.8242C182.425 71.8882 178.841 71.8883 174.873 71.6963C171.929 71.5683 170.649 70.5443 170.009 68.6883C169.113 65.9363 169.305 55.7603 169.177 34.9603C169.177 32.1443 169.241 29.3282 170.713 28.0482C172.377 26.6402 174.105 27.0883 179.097 26.8323C183.449 26.7043 188.441 26.7043 191.193 27.1523C193.753 27.5362 194.073 29.7763 194.073 32.4643C194.137 36.2403 192.409 37.2642 188.441 37.5203L180.697 37.7763L180.761 43.3443C181.465 43.4083 183.449 43.4083 184.153 43.4083C186.521 43.4083 188.441 43.3442 190.233 44.6882C192.025 46.0963 192.025 49.5523 191.449 51.9203C191.129 53.0723 190.041 53.7123 188.249 53.9043C186.969 54.1603 181.977 54.2882 180.825 54.1602C180.761 56.0163 180.761 59.4082 180.761 60.1763C183.257 60.2402 190.297 60.2403 191.449 60.3043C192.729 60.4963 194.137 60.7523 194.841 62.0322C195.737 63.8242 195.481 68.0483 194.713 69.5843C193.945 71.0563 192.217 71.6323 189.849 71.6963C188.697 71.7603 187.545 71.8242 186.393 71.8242Z" fill="#0A431A"/>
<path d="M212.144 71.7603C208.048 71.8243 206.576 70.1603 206.512 65.8083C206.576 61.5843 206.64 57.1042 206.832 52.6882C206.96 48.5282 206.96 42.7683 207.024 38.6723C203.504 38.6723 200.432 38.2243 198.96 37.0082C197.168 35.2803 197.168 32.3363 198.512 29.4563C200.176 26.1283 202.16 26.8323 206.704 27.0883C208.56 27.2803 217.584 27.5362 218.608 27.4722C222.192 27.4083 223.792 27.0243 225.712 28.3682C227.12 29.3282 227.632 30.8643 227.632 32.4643C227.632 34.7683 227.504 36.6882 226.416 37.3283C224.368 38.8003 221.936 38.7362 218.224 38.7362C218.608 63.0563 218.736 66.3843 218.48 68.3683C218.032 71.1203 216.048 71.7603 212.144 71.7603Z" fill="#0A431A"/>
<path d="M239.875 71.2482C233.923 69.0723 230.147 63.1203 229.123 56.9123C228.355 52.0483 228.291 46.2883 229.699 41.6163C231.235 36.3682 234.051 31.9522 237.891 29.1363C243.587 24.9763 253.571 25.4242 259.715 29.7123C262.019 31.3123 263.875 33.2323 265.155 35.5363C271.939 47.2483 268.739 63.5683 257.795 69.7763C252.675 72.7843 245.635 73.2962 239.875 71.2482ZM242.947 57.5523C247.171 62.4803 254.083 59.4723 256.067 52.6243C256.899 49.2323 256.451 45.1362 254.275 41.7442C249.987 35.3442 243.075 38.2243 241.155 45.9683C239.939 50.8323 240.707 53.9043 242.947 57.5523Z" fill="#0A431A"/>
<path d="M299.988 68.8802C293.972 74.3203 282.836 73.1683 277.652 66.8323C275.54 64.3363 273.94 60.1123 273.684 56.5923C273.044 47.7603 273.428 35.6643 274.324 32.7203C275.156 29.8403 276.372 28.0483 278.484 27.5362C279.828 26.9602 283.476 26.7683 284.756 28.8163C285.844 30.2883 285.844 30.8643 285.588 34.8962C285.588 36.4323 285.332 37.9043 285.14 41.4883C284.82 46.8003 284.628 52.3043 286.42 56.2083C287.764 59.7283 290.644 61.0723 293.14 57.9363C296.852 53.6483 295.636 42.0643 294.484 33.8723C293.972 29.7763 295.444 27.2803 299.092 26.5762C303.316 25.8083 305.364 26.7043 306.004 31.0562C306.9 38.4802 307.22 45.0723 306.708 50.7683C306.068 59.3443 303.828 65.4242 299.988 68.8802Z" fill="#0A431A"/>
<path d="M333.952 71.9522C331.52 72.4002 328.256 72.4003 325.952 71.7603C320.832 70.7363 316.928 67.9202 314.496 63.3763C310.848 57.2323 310.848 47.7603 313.152 40.9122C314.88 35.6003 317.632 31.3123 321.536 28.4963C326.144 25.1042 333.312 25.3603 337.92 28.1122C341.184 29.7763 342.848 31.8883 343.744 35.4722C344.256 38.4802 342.784 41.2323 339.904 41.6163C337.664 42.0643 336.256 40.4643 333.504 38.8003C329.792 36.8803 326.848 39.1203 325.12 42.8323C322.688 47.5683 322.368 52.9443 324.736 56.9123C327.04 60.8803 332.352 60.7523 334.528 59.7282C336.064 58.8322 337.216 56.9763 339.072 56.0803C341.952 55.1203 344.704 57.8083 344.96 60.3683C345.28 63.1203 344.192 65.7443 341.76 68.1123C339.584 70.0963 336.768 71.5042 333.952 71.9522Z" fill="#0A431A"/>
<path d="M375.299 71.7603C372.995 71.7603 371.843 71.0563 371.139 69.8403C370.243 68.3043 369.987 64.5923 370.179 61.6483C370.179 59.2803 370.243 57.8723 370.115 55.5683C366.979 55.5043 363.267 55.5683 361.283 55.7603C361.283 57.4243 361.347 57.4883 361.411 59.8563C361.411 61.7763 361.795 63.8242 361.475 66.7043C361.091 71.3123 358.851 72.0163 354.947 71.6963C352.707 71.5683 351.363 71.0563 350.531 69.7122C349.827 68.5602 349.507 67.2803 349.507 64.9762C349.507 50.2562 349.443 46.3523 348.739 34.2563C348.611 31.7603 348.995 30.2243 349.955 28.8803C351.043 27.4083 352.579 26.7683 355.843 26.7683C358.275 26.7683 359.491 27.2803 360.195 28.2403C360.963 29.5842 360.963 30.5443 360.899 32.2722C360.899 33.1042 360.451 42.5763 360.835 44.2403C363.779 44.4963 367.747 44.3043 369.859 44.3043H369.987C370.051 44.2403 370.115 41.5523 370.115 39.4403C370.115 38.2243 369.987 33.9363 369.923 33.5523C369.859 30.9283 370.307 29.4563 371.267 28.2403C372.867 26.2563 377.475 26.4483 379.587 27.3443C381.315 28.0483 382.019 29.5203 381.955 32.3363C381.699 45.8403 381.827 50.0003 382.019 56.8483C382.147 59.6003 382.211 62.4162 382.275 65.6162C382.275 67.6003 381.955 68.7523 381.187 70.0322C379.971 71.5042 377.795 71.7603 375.299 71.7603Z" fill="#0A431A"/>
<path d="M405.768 71.8242C401.8 71.8882 398.216 71.8883 394.248 71.6963C391.304 71.5683 390.024 70.5443 389.384 68.6883C388.488 65.9363 388.68 55.7603 388.552 34.9603C388.552 32.1443 388.616 29.3282 390.088 28.0482C391.752 26.6402 393.48 27.0883 398.472 26.8323C402.824 26.7043 407.816 26.7043 410.568 27.1523C413.128 27.5362 413.448 29.7763 413.448 32.4643C413.512 36.2403 411.784 37.2642 407.816 37.5203L400.072 37.7763L400.136 43.3443C400.84 43.4083 402.824 43.4083 403.528 43.4083C405.896 43.4083 407.816 43.3442 409.608 44.6882C411.4 46.0963 411.4 49.5523 410.824 51.9203C410.504 53.0723 409.416 53.7123 407.624 53.9043C406.344 54.1603 401.352 54.2882 400.2 54.1602C400.136 56.0163 400.136 59.4082 400.136 60.1763C402.632 60.2402 409.672 60.2403 410.824 60.3043C412.104 60.4963 413.512 60.7523 414.216 62.0322C415.112 63.8242 414.856 68.0483 414.088 69.5843C413.32 71.0563 411.592 71.6323 409.224 71.6963C408.072 71.7603 406.92 71.8242 405.768 71.8242Z" fill="#0A431A"/>
<path d="M430.759 71.9522C425.063 71.9522 421.863 72.6562 420.199 69.1362C419.623 67.9202 419.367 66.7682 419.303 64.7202V58.9603C419.495 53.3923 419.175 50.8962 419.303 44.6882C419.303 37.5202 419.175 38.4163 419.367 34.2563C419.367 30.5443 419.751 28.6882 422.951 27.8562C425.767 27.2162 425.575 27.0883 428.647 26.8962C433.703 26.3843 439.975 27.2162 443.303 30.0963C446.823 33.1042 449.319 37.4563 450.471 42.7043C452.455 51.2163 450.983 61.4562 445.223 67.2163C441.447 70.9923 436.327 71.9522 430.759 71.9522ZM430.567 60.0482C433.511 60.1122 436.263 59.2803 437.607 58.0003C441.383 54.0323 441.191 46.5443 437.991 41.3603C436.967 39.6963 433.895 37.8403 430.311 38.4802C430.247 38.6723 430.247 44.9443 430.311 48.9123C430.311 50.1923 430.567 59.9842 430.567 60.0482Z" fill="#0A431A"/>
<path d="M90.1162 158.798C87.3411 157.179 85.7223 152.438 84.6816 149.663C83.0628 146.31 79.0158 131.278 78.0908 128.734C77.5127 126.884 73.0031 110.927 72.1937 107.69C70.4593 101.561 69.303 97.052 68.0311 90.4611C67.3373 86.761 67.2217 83.9859 68.378 82.0203C69.9968 79.7077 73.0031 79.3608 76.5876 79.1295C85.2598 78.4358 87.4567 81.789 90.2318 89.9986C92.0819 96.0113 97.632 115.09 97.632 115.09C97.632 115.09 102.142 99.2489 104.107 90.808C105.148 86.9923 106.073 85.3735 107.923 82.2515C111.045 78.667 115.323 78.2045 119.486 78.5514C123.186 78.5514 125.498 79.4764 126.539 81.4421C128.967 85.0266 127.233 89.883 124.805 97.977C123.302 104.221 119.601 116.593 117.52 124.34C112.664 141.453 109.426 153.132 106.882 156.832C103.067 162.613 95.0882 161.92 90.1162 158.798Z" fill="#2DE160"/>
<path d="M144.462 160.07C137.409 159.491 135.675 156.023 135.559 147.582C135.443 143.997 135.559 140.528 135.559 137.175C135.675 133.475 135.559 129.89 135.443 126.075C135.328 121.565 135.906 107.459 134.981 90.1143C134.865 85.6047 135.559 82.2515 137.64 80.4015C140.994 77.2795 149.897 77.8576 153.135 80.2858C155.332 82.2515 156.372 83.8703 156.257 88.0329C155.678 111.043 156.141 123.068 156.372 134.747C156.603 139.488 156.719 144.228 156.835 149.663C156.835 153.016 156.141 154.982 154.869 156.601C152.903 159.838 149.088 159.954 144.462 160.07Z" fill="#2DE160"/>
<path d="M194.421 160.07C191.993 160.07 189.334 160.07 187.021 159.954H181.586C177.308 159.838 173.955 159.376 171.989 157.526C169.214 154.982 168.983 150.357 168.867 145.269V141.338C168.636 125.612 168.405 115.206 168.405 99.2489V98.4395C168.52 95.5488 168.405 90.808 168.867 87.1079C169.792 81.6734 171.874 79.2452 176.499 78.8983C178.927 78.7827 180.546 78.7827 182.28 79.0139C185.865 79.3608 187.599 80.864 188.409 83.9859C189.102 86.1829 189.334 88.958 189.218 91.8487C188.871 102.255 189.102 108.846 189.218 119.137C189.334 124.572 189.565 133.128 189.449 139.95C192.571 139.95 194.768 139.95 197.196 140.066C203.672 140.181 205.522 139.719 208.99 141.8C211.072 143.188 212.228 144.922 212.228 148.854C212.344 150.819 212.344 152.901 211.65 155.329C210.956 157.063 209.569 158.913 206.447 159.376C203.093 159.954 198.584 160.07 194.421 160.07Z" fill="#2DE160"/>
<path d="M243.315 160.07C240.887 160.07 238.227 160.07 235.915 159.954H230.48C226.202 159.838 222.849 159.376 220.883 157.526C218.108 154.982 217.877 150.357 217.761 145.269V141.338C217.53 125.612 217.299 115.206 217.299 99.2489V98.4395C217.414 95.5488 217.299 90.808 217.761 87.1079C218.686 81.6734 220.767 79.2452 225.393 78.8983C227.821 78.7827 229.439 78.7827 231.174 79.0139C234.758 79.3608 236.493 80.864 237.302 83.9859C237.996 86.1829 238.227 88.958 238.112 91.8487C237.765 102.255 237.996 108.846 238.112 119.137C238.227 124.572 238.459 133.128 238.343 139.95C241.465 139.95 243.662 139.95 246.09 140.066C252.565 140.181 254.415 139.719 257.884 141.8C259.965 143.188 261.122 144.922 261.122 148.854C261.237 150.819 261.237 152.901 260.544 155.329C259.85 157.063 258.462 158.913 255.34 159.376C251.987 159.954 247.478 160.07 243.315 160.07Z" fill="#2DE160"/>
<path d="M275.426 160.301C271.611 160.301 268.951 159.26 267.795 157.179C265.482 153.594 267.679 149.085 270.339 140.875C271.379 137.753 276.12 122.028 278.201 114.281C283.058 97.1676 286.064 87.3392 288.608 83.7547C292.308 77.742 300.633 77.0482 305.374 80.1702C308.033 81.789 309.768 86.5298 310.809 89.3049C312.312 92.6581 316.243 107.227 317.168 109.771C317.746 111.621 322.371 127.578 323.181 130.815C324.915 136.944 326.072 141.8 327.459 148.391C328.268 152.207 328.268 154.866 327.228 156.832C325.609 159.144 322.603 159.607 319.018 159.838C310.23 160.416 308.843 156.485 305.952 147.813C301.211 147.813 291.267 147.813 289.649 147.929C288.261 153.826 287.105 156.138 283.289 159.029C281.208 160.416 277.623 160.532 275.426 160.301ZM293.117 130.122H303.061C301.905 125.959 298.899 114.627 298.321 112.893C297.164 116.131 294.621 125.15 293.117 130.122Z" fill="#2DE160"/>
<path d="M371.924 160.532C363.02 162.151 352.614 160.416 345.56 155.213C337.698 149.432 333.882 141.106 332.147 131.741C329.257 113.356 335.038 92.5424 349.145 82.1359C360.823 74.1575 380.249 77.3951 386.724 88.1486C389.615 93.5831 390.424 98.4395 387.533 101.908C385.915 103.874 383.486 104.683 381.174 104.568C377.705 104.683 374.814 102.487 370.999 101.099C366.027 98.0926 359.204 98.902 355.273 108.268C350.532 117.518 350.995 125.497 354.695 131.972C355.967 135.094 359.204 138.794 364.755 138.794C367.298 138.794 369.958 137.984 371.577 136.713C375.971 134.631 376.318 128.965 376.086 129.197C367.067 129.775 362.673 127.578 361.401 124.572C359.551 118.906 361.17 114.512 365.795 113.471C371.577 111.621 378.168 111.043 387.418 111.737C393.199 112.199 397.246 114.165 398.056 118.328C400.368 125.15 397.478 139.256 393.084 146.657C388.227 154.288 380.943 159.029 371.924 160.532Z" fill="#2DE160"/>
<path d="M438.219 160.301C431.05 160.416 424.574 160.416 417.405 160.07C412.086 159.838 409.774 157.988 408.618 154.635C406.999 149.663 407.346 131.278 407.114 93.6987C407.114 88.6111 407.23 83.5234 409.89 81.2109C412.896 78.667 416.018 79.4764 425.037 79.0139C432.9 78.7827 441.919 78.7827 446.891 79.5921C451.516 80.2858 452.094 84.3328 452.094 89.1892C452.21 96.0113 449.088 97.8614 441.919 98.3239L427.928 98.7864L428.043 108.846C429.315 108.962 432.9 108.962 434.172 108.962C438.45 108.962 441.919 108.846 445.156 111.274C448.394 113.818 448.394 120.062 447.353 124.34C446.775 126.422 444.809 127.578 441.572 127.925C439.259 128.387 430.24 128.619 428.159 128.387C428.043 131.741 428.043 137.869 428.043 139.256C432.553 139.372 445.272 139.372 447.353 139.488C449.666 139.835 452.21 140.297 453.482 142.61C455.1 145.847 454.638 153.479 453.25 156.254C451.863 158.913 448.741 159.954 444.462 160.07C442.381 160.185 440.3 160.301 438.219 160.301Z" fill="#2DE160"/>
<path d="M469.89 18.8086C472.91 17.7075 476.251 19.2631 477.352 22.2832C478.453 25.3033 476.898 28.6442 473.877 29.7454L460.51 34.6192C457.49 35.7203 454.149 34.1647 453.048 31.1446C451.947 28.1245 453.503 24.7836 456.523 23.6824L469.89 18.8086Z" fill="#2DE160"/>
<path d="M445.622 4.63906C446.203 2.07698 448.751 0.470816 451.313 1.0516C453.875 1.63238 455.481 4.18017 454.9 6.74226L452.33 18.0822C451.749 20.6443 449.201 22.2504 446.639 21.6697C444.077 21.0889 442.471 18.5411 443.052 15.979L445.622 4.63906Z" fill="#2DE160"/>
</svg>
